<?xml version="1.0" encoding="utf-8" ?>
<svg baseProfile="full" height="57.5mm" version="1.1" viewBox="0,0,306.20000000000005,57.5" width="306.20000000000005mm" xmlns="http://www.w3.org/2000/svg" xmlns:ev="http://www.w3.org/2001/xml-events" xmlns:xlink="http://www.w3.org/1999/xlink"><defs /><rect fill="#FFFFFF" height="57.5" width="306.20000000000005" x="0" y="0" /><text fill="#586e75" style="font-size:6px; font-family:Arial; font-weight:bold;" x="10" y="10">coolegg</text><text fill="#586e75" style="font-size:3px; font-family:Arial;" x="10" y="14.4">2024: 352 hours</text><text fill="#586e75" style="font-size:2.5px; font-family:Arial" x="10" y="18.3">Jan</text><rect fill="#7ec5fc" height="4" rx="1" ry="1" width="4" x="10" y="19.7"><title>2024-01-01 28.27 mins</title></rect><rect fill="#34A7FF" height="4" rx="1" ry="1" width="4" x="10" y="25.1"><title>2024-01-02 187.12 mins</title></rect><rect fill="#34A7FF" height="4" rx="1" ry="1" width="4" x="10" y="30.5"><title>2024-01-03 106.92 mins</title></rect><rect fill="#55b4fd" height="4" rx="1" ry="1" width="4" x="10" y="35.9"><title>2024-01-04 95.1 mins</title></rect><rect fill="#34A7FF" height="4" rx="1" ry="1" width="4" x="10" y="41.300000000000004"><title>2024-01-05 175.2 mins</title></rect><rect fill="#34A7FF" height="4" rx="1" ry="1" width="4" x="10" y="46.699999999999996"><title>2024-01-06 161.82 mins</title></rect><rect fill="#7ec5fc" height="4" rx="1" ry="1" width="4" x="10" y="52.1"><title>2024-01-07 27.63 mins</title></rect><rect fill="#34A7FF" height="4" rx="1" ry="1" width="4" x="15.4" y="19.7"><title>2024-01-08 128.12 mins</title></rect><rect fill="#57b5fd" height="4" rx="1" ry="1" width="4" x="15.4" y="25.1"><title>2024-01-09 51.58 mins</title></rect><rect fill="#56b5fd" height="4" rx="1" ry="1" width="4" x="15.4" y="30.5"><title>2024-01-10 71.68 mins</title></rect><rect fill="#81c6fc" height="4" rx="1" ry="1" width="4" x="15.4" y="35.9"><title>2024-01-11 1.63 mins</title></rect><rect fill="#80c6fc" height="4" rx="1" ry="1" width="4" x="15.4" y="41.300000000000004"><title>2024-01-12 10.7 mins</title></rect><rect fill="#80c5fc" height="4" rx="1" ry="1" width="4" x="15.4" y="46.699999999999996"><title>2024-01-13 12.5 mins</title></rect><rect fill="#D6DDEA" height="4" rx="1" ry="1" width="4" x="15.4" y="52.1"><title>2024-01-14</title></rect><rect fill="#56b4fd" height="4" rx="1" ry="1" width="4" x="20.8" y="19.7"><title>2024-01-15 78.32 mins</title></rect><rect fill="#7ec5fc" height="4" rx="1" ry="1" width="4" x="20.8" y="25.1"><title>2024-01-16 26.95 mins</title></rect><rect fill="#7dc4fc" height="4" rx="1" ry="1" width="4" x="20.8" y="30.5"><title>2024-01-17 35.82 mins</title></rect><rect fill="#80c5fc" height="4" rx="1" ry="1" width="4" x="20.8" y="35.9"><title>2024-01-18 12.73 mins</title></rect><rect fill="#55b4fd" height="4" rx="1" ry="1" width="4" x="20.8" y="41.300000000000004"><title>2024-01-19 90.43 mins</title></rect><rect fill="#34A7FF" height="4" rx="1" ry="1" width="4" x="20.8" y="46.699999999999996"><title>2024-01-20 283.6 mins</title></rect><rect fill="#7fc5fc" height="4" rx="1" ry="1" width="4" x="20.8" y="52.1"><title>2024-01-21 20.37 mins</title></rect><rect fill="#56b5fd" height="4" rx="1" ry="1" width="4" x="26.200000000000003" y="19.7"><title>2024-01-22 69.5 mins</title></rect><rect fill="#7fc5fc" height="4" rx="1" ry="1" width="4" x="26.200000000000003" y="25.1"><title>2024-01-23 22.52 mins</title></rect><rect fill="#7ec5fc" height="4" rx="1" ry="1" width="4" x="26.200000000000003" y="30.5"><title>2024-01-24 28.98 mins</title></rect><rect fill="#81c6fc" height="4" rx="1" ry="1" width="4" x="26.200000000000003" y="35.9"><title>2024-01-25 2.3 mins</title></rect><rect fill="#58b5fd" height="4" rx="1" ry="1" width="4" x="26.200000000000003" y="41.300000000000004"><title>2024-01-26 43.03 mins</title></rect><rect fill="#7fc5fc" height="4" rx="1" ry="1" width="4" x="26.200000000000003" y="46.699999999999996"><title>2024-01-27 15.9 mins</title></rect><rect fill="#34A7FF" height="4" rx="1" ry="1" width="4" x="26.200000000000003" y="52.1"><title>2024-01-28 238.72 mins</title></rect><rect fill="#58b5fd" height="4" rx="1" ry="1" width="4" x="31.6" y="19.7"><title>2024-01-29 43.63 mins</title></rect><rect fill="#56b4fd" height="4" rx="1" ry="1" width="4" x="31.6" y="25.1"><title>2024-01-30 87.5 mins</title></rect><rect fill="#57b5fd" height="4" rx="1" ry="1" width="4" x="31.6" y="30.5"><title>2024-01-31 54.63 mins</title></rect><rect fill="#7fc5fc" height="4" rx="1" ry="1" width="4" x="31.6" y="35.9"><title>2024-02-01 17.07 mins</title></rect><rect fill="#7ec5fc" height="4" rx="1" ry="1" width="4" x="31.6" y="41.300000000000004"><title>2024-02-02 24.83 mins</title></rect><rect fill="#34A7FF" height="4" rx="1" ry="1" width="4" x="31.6" y="46.699999999999996"><title>2024-02-03 176.9 mins</title></rect><rect fill="#34A7FF" height="4" rx="1" ry="1" width="4" x="31.6" y="52.1"><title>2024-02-04 111.4 mins</title></rect><text fill="#586e75" style="font-size:2.5px; font-family:Arial" x="37.0" y="18.3">Feb</text><rect fill="#34A7FF" height="4" rx="1" ry="1" width="4" x="37.0" y="19.7"><title>2024-02-05 98.8 mins</title></rect><rect fill="#57b5fd" height="4" rx="1" ry="1" width="4" x="37.0" y="25.1"><title>2024-02-06 50.58 mins</title></rect><rect fill="#57b5fd" height="4" rx="1" ry="1" width="4" x="37.0" y="30.5"><title>2024-02-07 50.45 mins</title></rect><rect fill="#34A7FF" height="4" rx="1" ry="1" width="4" x="37.0" y="35.9"><title>2024-02-08 119.65 mins</title></rect><rect fill="#7ec5fc" height="4" rx="1" ry="1" width="4" x="37.0" y="41.300000000000004"><title>2024-02-09 27.02 mins</title></rect><rect fill="#34A7FF" height="4" rx="1" ry="1" width="4" x="37.0" y="46.699999999999996"><title>2024-02-10 305.57 mins</title></rect><rect fill="#34A7FF" height="4" rx="1" ry="1" width="4" x="37.0" y="52.1"><title>2024-02-11 103.92 mins</title></rect><rect fill="#80c5fc" height="4" rx="1" ry="1" width="4" x="42.4" y="19.7"><title>2024-02-12 12.57 mins</title></rect><rect fill="#34A7FF" height="4" rx="1" ry="1" width="4" x="42.4" y="25.1"><title>2024-02-13 108.82 mins</title></rect><rect fill="#55b4fd" height="4" rx="1" ry="1" width="4" x="42.4" y="30.5"><title>2024-02-14 91.15 mins</title></rect><rect fill="#55b4fd" height="4" rx="1" ry="1" width="4" x="42.4" y="35.9"><title>2024-02-15 92.77 mins</title></rect><rect fill="#34A7FF" height="4" rx="1" ry="1" width="4" x="42.4" y="41.300000000000004"><title>2024-02-16 109.0 mins</title></rect><rect fill="#56b4fd" height="4" rx="1" ry="1" width="4" x="42.4" y="46.699999999999996"><title>2024-02-17 83.47 mins</title></rect><rect fill="#34A7FF" height="4" rx="1" ry="1" width="4" x="42.4" y="52.1"><title>2024-02-18 163.92 mins</title></rect><rect fill="#34A7FF" height="4" rx="1" ry="1" width="4" x="47.8" y="19.7"><title>2024-02-19 217.2 mins</title></rect><rect fill="#56b4fd" height="4" rx="1" ry="1" width="4" x="47.8" y="25.1"><title>2024-02-20 87.65 mins</title></rect><rect fill="#34A7FF" height="4" rx="1" ry="1" width="4" x="47.8" y="30.5"><title>2024-02-21 186.38 mins</title></rect><rect fill="#56b4fd" height="4" rx="1" ry="1" width="4" x="47.8" y="35.9"><title>2024-02-22 82.85 mins</title></rect><rect fill="#7fc5fc" height="4" rx="1" ry="1" width="4" x="47.8" y="41.300000000000004"><title>2024-02-23 14.95 mins</title></rect><rect fill="#80c6fc" height="4" rx="1" ry="1" width="4" x="47.8" y="46.699999999999996"><title>2024-02-24 10.22 mins</title></rect><rect fill="#57b5fd" height="4" rx="1" ry="1" width="4" x="47.8" y="52.1"><title>2024-02-25 60.2 mins</title></rect><rect fill="#57b5fd" height="4" rx="1" ry="1" width="4" x="53.199999999999996" y="19.7"><title>2024-02-26 50.4 mins</title></rect><rect fill="#7ec5fc" height="4" rx="1" ry="1" width="4" x="53.199999999999996" y="25.1"><title>2024-02-27 34.03 mins</title></rect><rect fill="#7ec5fc" height="4" rx="1" ry="1" width="4" x="53.199999999999996" y="30.5"><title>2024-02-28 33.47 mins</title></rect><rect fill="#7fc5fc" height="4" rx="1" ry="1" width="4" x="53.199999999999996" y="35.9"><title>2024-02-29 20.83 mins</title></rect><rect fill="#57b5fd" height="4" rx="1" ry="1" width="4" x="53.199999999999996" y="41.300000000000004"><title>2024-03-01 51.43 mins</title></rect><rect fill="#81c6fc" height="4" rx="1" ry="1" width="4" x="53.199999999999996" y="46.699999999999996"><title>2024-03-02 0.32 mins</title></rect><rect fill="#80c6fc" height="4" rx="1" ry="1" width="4" x="53.199999999999996" y="52.1"><title>2024-03-03 6.85 mins</title></rect><text fill="#586e75" style="font-size:2.5px; font-family:Arial" x="58.599999999999994" y="18.3">Mar</text><rect fill="#81c6fc" height="4" rx="1" ry="1" width="4" x="58.599999999999994" y="19.7"><title>2024-03-04 0.42 mins</title></rect><rect fill="#7ec5fc" height="4" rx="1" ry="1" width="4" x="58.599999999999994" y="25.1"><title>2024-03-05 26.22 mins</title></rect><rect fill="#7dc5fc" height="4" rx="1" ry="1" width="4" x="58.599999999999994" y="30.5"><title>2024-03-06 34.77 mins</title></rect><rect fill="#34A7FF" height="4" rx="1" ry="1" width="4" x="58.599999999999994" y="35.9"><title>2024-03-07 250.55 mins</title></rect><rect fill="#7fc5fc" height="4" rx="1" ry="1" width="4" x="58.599999999999994" y="41.300000000000004"><title>2024-03-08 21.83 mins</title></rect><rect fill="#57b5fd" height="4" rx="1" ry="1" width="4" x="58.599999999999994" y="46.699999999999996"><title>2024-03-09 62.35 mins</title></rect><rect fill="#7ec5fc" height="4" rx="1" ry="1" width="4" x="58.599999999999994" y="52.1"><title>2024-03-10 24.73 mins</title></rect><rect fill="#57b5fd" height="4" rx="1" ry="1" width="4" x="63.99999999999999" y="19.7"><title>2024-03-11 66.5 mins</title></rect><rect fill="#34A7FF" height="4" rx="1" ry="1" width="4" x="63.99999999999999" y="25.1"><title>2024-03-12 143.85 mins</title></rect><rect fill="#34A7FF" height="4" rx="1" ry="1" width="4" x="63.99999999999999" y="30.5"><title>2024-03-13 118.63 mins</title></rect><rect fill="#34A7FF" height="4" rx="1" ry="1" width="4" x="63.99999999999999" y="35.9"><title>2024-03-14 103.57 mins</title></rect><rect fill="#58b5fd" height="4" rx="1" ry="1" width="4" x="63.99999999999999" y="41.300000000000004"><title>2024-03-15 46.68 mins</title></rect><rect fill="#34A7FF" height="4" rx="1" ry="1" width="4" x="63.99999999999999" y="46.699999999999996"><title>2024-03-16 133.55 mins</title></rect><rect fill="#34A7FF" height="4" rx="1" ry="1" width="4" x="63.99999999999999" y="52.1"><title>2024-03-17 196.75 mins</title></rect><rect fill="#34A7FF" height="4" rx="1" ry="1" width="4" x="69.39999999999999" y="19.7"><title>2024-03-18 112.75 mins</title></rect><rect fill="#34A7FF" height="4" rx="1" ry="1" width="4" x="69.39999999999999" y="25.1"><title>2024-03-19 138.23 mins</title></rect><rect fill="#7fc5fc" height="4" rx="1" ry="1" width="4" x="69.39999999999999" y="30.5"><title>2024-03-20 17.08 mins</title></rect><rect fill="#55b4fd" height="4" rx="1" ry="1" width="4" x="69.39999999999999" y="35.9"><title>2024-03-21 89.03 mins</title></rect><rect fill="#7fc5fc" height="4" rx="1" ry="1" width="4" x="69.39999999999999" y="41.300000000000004"><title>2024-03-22 21.72 mins</title></rect><rect fill="#34A7FF" height="4" rx="1" ry="1" width="4" x="69.39999999999999" y="46.699999999999996"><title>2024-03-23 246.32 mins</title></rect><rect fill="#34A7FF" height="4" rx="1" ry="1" width="4" x="69.39999999999999" y="52.1"><title>2024-03-24 296.65 mins</title></rect><rect fill="#56b4fd" height="4" rx="1" ry="1" width="4" x="74.8" y="19.7"><title>2024-03-25 86.62 mins</title></rect><rect fill="#34A7FF" height="4" rx="1" ry="1" width="4" x="74.8" y="25.1"><title>2024-03-26 155.87 mins</title></rect><rect fill="#34A7FF" height="4" rx="1" ry="1" width="4" x="74.8" y="30.5"><title>2024-03-27 238.62 mins</title></rect><rect fill="#7fc5fc" height="4" rx="1" ry="1" width="4" x="74.8" y="35.9"><title>2024-03-28 17.77 mins</title></rect><rect fill="#7dc5fc" height="4" rx="1" ry="1" width="4" x="74.8" y="41.300000000000004"><title>2024-03-29 34.6 mins</title></rect><rect fill="#D6DDEA" height="4" rx="1" ry="1" width="4" x="74.8" y="46.699999999999996"><title>2024-03-30</title></rect><rect fill="#80c6fc" height="4" rx="1" ry="1" width="4" x="74.8" y="52.1"><title>2024-03-31 7.15 mins</title></rect><text fill="#586e75" style="font-size:2.5px; font-family:Arial" x="80.2" y="18.3">Apr</text><rect fill="#7fc5fc" height="4" rx="1" ry="1" width="4" x="80.2" y="19.7"><title>2024-04-01 21.98 mins</title></rect><rect fill="#34A7FF" height="4" rx="1" ry="1" width="4" x="80.2" y="25.1"><title>2024-04-02 121.62 mins</title></rect><rect fill="#34A7FF" height="4" rx="1" ry="1" width="4" x="80.2" y="30.5"><title>2024-04-03 148.6 mins</title></rect><rect fill="#7ec5fc" height="4" rx="1" ry="1" width="4" x="80.2" y="35.9"><title>2024-04-04 30.57 mins</title></rect><rect fill="#D6DDEA" height="4" rx="1" ry="1" width="4" x="80.2" y="41.300000000000004"><title>2024-04-05</title></rect><rect fill="#81c6fc" height="4" rx="1" ry="1" width="4" x="80.2" y="46.699999999999996"><title>2024-04-06 2.55 mins</title></rect><rect fill="#7dc4fc" height="4" rx="1" ry="1" width="4" x="80.2" y="52.1"><title>2024-04-07 40.18 mins</title></rect><rect fill="#7fc5fc" height="4" rx="1" ry="1" width="4" x="85.60000000000001" y="19.7"><title>2024-04-08 18.67 mins</title></rect><rect fill="#80c5fc" height="4" rx="1" ry="1" width="4" x="85.60000000000001" y="25.1"><title>2024-04-09 12.98 mins</title></rect><rect fill="#34A7FF" height="4" rx="1" ry="1" width="4" x="85.60000000000001" y="30.5"><title>2024-04-10 131.23 mins</title></rect><rect fill="#34A7FF" height="4" rx="1" ry="1" width="4" x="85.60000000000001" y="35.9"><title>2024-04-11 97.25 mins</title></rect><rect fill="#34A7FF" height="4" rx="1" ry="1" width="4" x="85.60000000000001" y="41.300000000000004"><title>2024-04-12 151.88 mins</title></rect><rect fill="#34A7FF" height="4" rx="1" ry="1" width="4" x="85.60000000000001" y="46.699999999999996"><title>2024-04-13 97.07 mins</title></rect><rect fill="#7dc4fc" height="4" rx="1" ry="1" width="4" x="85.60000000000001" y="52.1"><title>2024-04-14 36.1 mins</title></rect><rect fill="#55b4fd" height="4" rx="1" ry="1" width="4" x="91.00000000000001" y="19.7"><title>2024-04-15 89.07 mins</title></rect><rect fill="#57b5fd" height="4" rx="1" ry="1" width="4" x="91.00000000000001" y="25.1"><title>2024-04-16 63.2 mins</title></rect><rect fill="#56b4fd" height="4" rx="1" ry="1" width="4" x="91.00000000000001" y="30.5"><title>2024-04-17 86.85 mins</title></rect><rect fill="#57b5fd" height="4" rx="1" ry="1" width="4" x="91.00000000000001" y="35.9"><title>2024-04-18 51.53 mins</title></rect><rect fill="#7ec5fc" height="4" rx="1" ry="1" width="4" x="91.00000000000001" y="41.300000000000004"><title>2024-04-19 25.9 mins</title></rect><rect fill="#57b5fd" height="4" rx="1" ry="1" width="4" x="91.00000000000001" y="46.699999999999996"><title>2024-04-20 62.75 mins</title></rect><rect fill="#56b4fd" height="4" rx="1" ry="1" width="4" x="91.00000000000001" y="52.1"><title>2024-04-21 78.77 mins</title></rect><rect fill="#56b4fd" height="4" rx="1" ry="1" width="4" x="96.40000000000002" y="19.7"><title>2024-04-22 82.97 mins</title></rect><rect fill="#56b5fd" height="4" rx="1" ry="1" width="4" x="96.40000000000002" y="25.1"><title>2024-04-23 72.2 mins</title></rect><rect fill="#7fc5fc" height="4" rx="1" ry="1" width="4" x="96.40000000000002" y="30.5"><title>2024-04-24 17.57 mins</title></rect><rect fill="#80c5fc" height="4" rx="1" ry="1" width="4" x="96.40000000000002" y="35.9"><title>2024-04-25 12.05 mins</title></rect><rect fill="#7fc5fc" height="4" rx="1" ry="1" width="4" x="96.40000000000002" y="41.300000000000004"><title>2024-04-26 23.43 mins</title></rect><rect fill="#57b5fd" height="4" rx="1" ry="1" width="4" x="96.40000000000002" y="46.699999999999996"><title>2024-04-27 55.57 mins</title></rect><rect fill="#7fc5fc" height="4" rx="1" ry="1" width="4" x="96.40000000000002" y="52.1"><title>2024-04-28 22.32 mins</title></rect><rect fill="#58b5fd" height="4" rx="1" ry="1" width="4" x="101.80000000000003" y="19.7"><title>2024-04-29 41.13 mins</title></rect><rect fill="#57b5fd" height="4" rx="1" ry="1" width="4" x="101.80000000000003" y="25.1"><title>2024-04-30 53.15 mins</title></rect><rect fill="#34A7FF" height="4" rx="1" ry="1" width="4" x="101.80000000000003" y="30.5"><title>2024-05-01 158.42 mins</title></rect><rect fill="#80c6fc" height="4" rx="1" ry="1" width="4" x="101.80000000000003" y="35.9"><title>2024-05-02 8.17 mins</title></rect><rect fill="#D6DDEA" height="4" rx="1" ry="1" width="4" x="101.80000000000003" y="41.300000000000004"><title>2024-05-03</title></rect><rect fill="#56b5fd" height="4" rx="1" ry="1" width="4" x="101.80000000000003" y="46.699999999999996"><title>2024-05-04 70.52 mins</title></rect><rect fill="#34A7FF" height="4" rx="1" ry="1" width="4" x="101.80000000000003" y="52.1"><title>2024-05-05 124.55 mins</title></rect><text fill="#586e75" style="font-size:2.5px; font-family:Arial" x="107.20000000000003" y="18.3">May</text><rect fill="#57b5fd" height="4" rx="1" ry="1" width="4" x="107.20000000000003" y="19.7"><title>2024-05-06 66.77 mins</title></rect><rect fill="#34A7FF" height="4" rx="1" ry="1" width="4" x="107.20000000000003" y="25.1"><title>2024-05-07 98.33 mins</title></rect><rect fill="#7ec5fc" height="4" rx="1" ry="1" width="4" x="107.20000000000003" y="30.5"><title>2024-05-08 33.42 mins</title></rect><rect fill="#7ec5fc" height="4" rx="1" ry="1" width="4" x="107.20000000000003" y="35.9"><title>2024-05-09 25.22 mins</title></rect><rect fill="#57b5fd" height="4" rx="1" ry="1" width="4" x="107.20000000000003" y="41.300000000000004"><title>2024-05-10 62.67 mins</title></rect><rect fill="#80c5fc" height="4" rx="1" ry="1" width="4" x="107.20000000000003" y="46.699999999999996"><title>2024-05-11 12.8 mins</title></rect><rect fill="#34A7FF" height="4" rx="1" ry="1" width="4" x="107.20000000000003" y="52.1"><title>2024-05-12 173.87 mins</title></rect><rect fill="#7ec5fc" height="4" rx="1" ry="1" width="4" x="112.60000000000004" y="19.7"><title>2024-05-13 33.38 mins</title></rect><rect fill="#58b5fd" height="4" rx="1" ry="1" width="4" x="112.60000000000004" y="25.1"><title>2024-05-14 43.92 mins</title></rect><rect fill="#7fc5fc" height="4" rx="1" ry="1" width="4" x="112.60000000000004" y="30.5"><title>2024-05-15 16.27 mins</title></rect><rect fill="#34A7FF" height="4" rx="1" ry="1" width="4" x="112.60000000000004" y="35.9"><title>2024-05-16 152.5 mins</title></rect><rect fill="#56b4fd" height="4" rx="1" ry="1" width="4" x="112.60000000000004" y="41.300000000000004"><title>2024-05-17 76.37 mins</title></rect><rect fill="#34A7FF" height="4" rx="1" ry="1" width="4" x="112.60000000000004" y="46.699999999999996"><title>2024-05-18 189.08 mins</title></rect><rect fill="#56b4fd" height="4" rx="1" ry="1" width="4" x="112.60000000000004" y="52.1"><title>2024-05-19 75.27 mins</title></rect><rect fill="#55b4fd" height="4" rx="1" ry="1" width="4" x="118.00000000000004" y="19.7"><title>2024-05-20 89.72 mins</title></rect><rect fill="#58b5fd" height="4" rx="1" ry="1" width="4" x="118.00000000000004" y="25.1"><title>2024-05-21 45.27 mins</title></rect><rect fill="#57b5fd" height="4" rx="1" ry="1" width="4" x="118.00000000000004" y="30.5"><title>2024-05-22 58.97 mins</title></rect><rect fill="#34A7FF" height="4" rx="1" ry="1" width="4" x="118.00000000000004" y="35.9"><title>2024-05-23 98.3 mins</title></rect><rect fill="#58b5fd" height="4" rx="1" ry="1" width="4" x="118.00000000000004" y="41.300000000000004"><title>2024-05-24 45.4 mins</title></rect><rect fill="#7ec5fc" height="4" rx="1" ry="1" width="4" x="118.00000000000004" y="46.699999999999996"><title>2024-05-25 29.07 mins</title></rect><rect fill="#7dc4fc" height="4" rx="1" ry="1" width="4" x="118.00000000000004" y="52.1"><title>2024-05-26 36.35 mins</title></rect><rect fill="#34A7FF" height="4" rx="1" ry="1" width="4" x="123.40000000000005" y="19.7"><title>2024-05-27 100.65 mins</title></rect><rect fill="#34A7FF" height="4" rx="1" ry="1" width="4" x="123.40000000000005" y="25.1"><title>2024-05-28 136.13 mins</title></rect><rect fill="#7fc5fc" height="4" rx="1" ry="1" width="4" x="123.40000000000005" y="30.5"><title>2024-05-29 15.53 mins</title></rect><rect fill="#34A7FF" height="4" rx="1" ry="1" width="4" x="123.40000000000005" y="35.9"><title>2024-05-30 138.77 mins</title></rect><rect fill="#34A7FF" height="4" rx="1" ry="1" width="4" x="123.40000000000005" y="41.300000000000004"><title>2024-05-31 293.07 mins</title></rect><rect fill="#34A7FF" height="4" rx="1" ry="1" width="4" x="123.40000000000005" y="46.699999999999996"><title>2024-06-01 223.93 mins</title></rect><rect fill="#7ec5fc" height="4" rx="1" ry="1" width="4" x="123.40000000000005" y="52.1"><title>2024-06-02 30.45 mins</title></rect><text fill="#586e75" style="font-size:2.5px; font-family:Arial" x="128.80000000000004" y="18.3">Jun</text><rect fill="#34A7FF" height="4" rx="1" ry="1" width="4" x="128.80000000000004" y="19.7"><title>2024-06-03 195.53 mins</title></rect><rect fill="#34A7FF" height="4" rx="1" ry="1" width="4" x="128.80000000000004" y="25.1"><title>2024-06-04 118.47 mins</title></rect><rect fill="#55b4fd" height="4" rx="1" ry="1" width="4" x="128.80000000000004" y="30.5"><title>2024-06-05 94.93 mins</title></rect><rect fill="#7ec5fc" height="4" rx="1" ry="1" width="4" x="128.80000000000004" y="35.9"><title>2024-06-06 32.27 mins</title></rect><rect fill="#34A7FF" height="4" rx="1" ry="1" width="4" x="128.80000000000004" y="41.300000000000004"><title>2024-06-07 97.08 mins</title></rect><rect fill="#81c6fc" height="4" rx="1" ry="1" width="4" x="128.80000000000004" y="46.699999999999996"><title>2024-06-08 1.28 mins</title></rect><rect fill="#7fc5fc" height="4" rx="1" ry="1" width="4" x="128.80000000000004" y="52.1"><title>2024-06-09 15.68 mins</title></rect><rect fill="#81c6fc" height="4" rx="1" ry="1" width="4" x="134.20000000000005" y="19.7"><title>2024-06-10 0.22 mins</title></rect><rect fill="#57b5fd" height="4" rx="1" ry="1" width="4" x="134.20000000000005" y="25.1"><title>2024-06-11 64.9 mins</title></rect><rect fill="#7dc4fc" height="4" rx="1" ry="1" width="4" x="134.20000000000005" y="30.5"><title>2024-06-12 37.7 mins</title></rect><rect fill="#58b5fd" height="4" rx="1" ry="1" width="4" x="134.20000000000005" y="35.9"><title>2024-06-13 42.88 mins</title></rect><rect fill="#56b5fd" height="4" rx="1" ry="1" width="4" x="134.20000000000005" y="41.300000000000004"><title>2024-06-14 71.25 mins</title></rect><rect fill="#7ec5fc" height="4" rx="1" ry="1" width="4" x="134.20000000000005" y="46.699999999999996"><title>2024-06-15 24.7 mins</title></rect><rect fill="#57b5fd" height="4" rx="1" ry="1" width="4" x="134.20000000000005" y="52.1"><title>2024-06-16 66.38 mins</title></rect><rect fill="#34A7FF" height="4" rx="1" ry="1" width="4" x="139.60000000000005" y="19.7"><title>2024-06-17 136.95 mins</title></rect><rect fill="#57b5fd" height="4" rx="1" ry="1" width="4" x="139.60000000000005" y="25.1"><title>2024-06-18 61.73 mins</title></rect><rect fill="#57b5fd" height="4" rx="1" ry="1" width="4" x="139.60000000000005" y="30.5"><title>2024-06-19 54.37 mins</title></rect><rect fill="#34A7FF" height="4" rx="1" ry="1" width="4" x="139.60000000000005" y="35.9"><title>2024-06-20 153.55 mins</title></rect><rect fill="#34A7FF" height="4" rx="1" ry="1" width="4" x="139.60000000000005" y="41.300000000000004"><title>2024-06-21 238.93 mins</title></rect><rect fill="#34A7FF" height="4" rx="1" ry="1" width="4" x="139.60000000000005" y="46.699999999999996"><title>2024-06-22 155.53 mins</title></rect><rect fill="#57b5fd" height="4" rx="1" ry="1" width="4" x="139.60000000000005" y="52.1"><title>2024-06-23 58.03 mins</title></rect><rect fill="#80c5fc" height="4" rx="1" ry="1" width="4" x="145.00000000000006" y="19.7"><title>2024-06-24 13.52 mins</title></rect><rect fill="#57b5fd" height="4" rx="1" ry="1" width="4" x="145.00000000000006" y="25.1"><title>2024-06-25 57.47 mins</title></rect><rect fill="#34A7FF" height="4" rx="1" ry="1" width="4" x="145.00000000000006" y="30.5"><title>2024-06-26 303.58 mins</title></rect><rect fill="#7ec5fc" height="4" rx="1" ry="1" width="4" x="145.00000000000006" y="35.9"><title>2024-06-27 33.4 mins</title></rect><rect fill="#34A7FF" height="4" rx="1" ry="1" width="4" x="145.00000000000006" y="41.300000000000004"><title>2024-06-28 276.08 mins</title></rect><rect fill="#57b5fd" height="4" rx="1" ry="1" width="4" x="145.00000000000006" y="46.699999999999996"><title>2024-06-29 61.3 mins</title></rect><rect fill="#58b5fd" height="4" rx="1" ry="1" width="4" x="145.00000000000006" y="52.1"><title>2024-06-30 41.3 mins</title></rect><text fill="#586e75" style="font-size:2.5px; font-family:Arial" x="150.40000000000006" y="18.3">Jul</text><rect fill="#7fc5fc" height="4" rx="1" ry="1" width="4" x="150.40000000000006" y="19.7"><title>2024-07-01 20.93 mins</title></rect><rect fill="#80c5fc" height="4" rx="1" ry="1" width="4" x="150.40000000000006" y="25.1"><title>2024-07-02 11.65 mins</title></rect><rect fill="#57b5fd" height="4" rx="1" ry="1" width="4" x="150.40000000000006" y="30.5"><title>2024-07-03 66.97 mins</title></rect><rect fill="#7fc5fc" height="4" rx="1" ry="1" width="4" x="150.40000000000006" y="35.9"><title>2024-07-04 22.62 mins</title></rect><rect fill="#81c6fc" height="4" rx="1" ry="1" width="4" x="150.40000000000006" y="41.300000000000004"><title>2024-07-05 1.52 mins</title></rect><rect fill="#34A7FF" height="4" rx="1" ry="1" width="4" x="150.40000000000006" y="46.699999999999996"><title>2024-07-06 139.38 mins</title></rect><rect fill="#7fc5fc" height="4" rx="1" ry="1" width="4" x="150.40000000000006" y="52.1"><title>2024-07-07 23.72 mins</title></rect><rect fill="#57b5fd" height="4" rx="1" ry="1" width="4" x="155.80000000000007" y="19.7"><title>2024-07-08 49.0 mins</title></rect><rect fill="#7fc5fc" height="4" rx="1" ry="1" width="4" x="155.80000000000007" y="25.1"><title>2024-07-09 20.78 mins</title></rect><rect fill="#7fc5fc" height="4" rx="1" ry="1" width="4" x="155.80000000000007" y="30.5"><title>2024-07-10 16.83 mins</title></rect><rect fill="#81c6fc" height="4" rx="1" ry="1" width="4" x="155.80000000000007" y="35.9"><title>2024-07-11 2.97 mins</title></rect><rect fill="#D6DDEA" height="4" rx="1" ry="1" width="4" x="155.80000000000007" y="41.300000000000004"><title>2024-07-12</title></rect><rect fill="#58b5fd" height="4" rx="1" ry="1" width="4" x="155.80000000000007" y="46.699999999999996"><title>2024-07-13 47.45 mins</title></rect><rect fill="#58b5fd" height="4" rx="1" ry="1" width="4" x="155.80000000000007" y="52.1"><title>2024-07-14 46.55 mins</title></rect><rect fill="#7ec5fc" height="4" rx="1" ry="1" width="4" x="161.20000000000007" y="19.7"><title>2024-07-15 31.1 mins</title></rect><rect fill="#80c6fc" height="4" rx="1" ry="1" width="4" x="161.20000000000007" y="25.1"><title>2024-07-16 11.08 mins</title></rect><rect fill="#57b5fd" height="4" rx="1" ry="1" width="4" x="161.20000000000007" y="30.5"><title>2024-07-17 56.45 mins</title></rect><rect fill="#57b5fd" height="4" rx="1" ry="1" width="4" x="161.20000000000007" y="35.9"><title>2024-07-18 51.4 mins</title></rect><rect fill="#7dc4fc" height="4" rx="1" ry="1" width="4" x="161.20000000000007" y="41.300000000000004"><title>2024-07-19 40.38 mins</title></rect><rect fill="#D6DDEA" height="4" rx="1" ry="1" width="4" x="161.20000000000007" y="46.699999999999996"><title>2024-07-20</title></rect><rect fill="#80c6fc" height="4" rx="1" ry="1" width="4" x="161.20000000000007" y="52.1"><title>2024-07-21 5.12 mins</title></rect><rect fill="#58b5fd" height="4" rx="1" ry="1" width="4" x="166.60000000000008" y="19.7"><title>2024-07-22 44.27 mins</title></rect><rect fill="#80c6fc" height="4" rx="1" ry="1" width="4" x="166.60000000000008" y="25.1"><title>2024-07-23 5.27 mins</title></rect><rect fill="#57b5fd" height="4" rx="1" ry="1" width="4" x="166.60000000000008" y="30.5"><title>2024-07-24 53.97 mins</title></rect><rect fill="#80c6fc" height="4" rx="1" ry="1" width="4" x="166.60000000000008" y="35.9"><title>2024-07-25 6.52 mins</title></rect><rect fill="#7ec5fc" height="4" rx="1" ry="1" width="4" x="166.60000000000008" y="41.300000000000004"><title>2024-07-26 32.02 mins</title></rect><rect fill="#56b4fd" height="4" rx="1" ry="1" width="4" x="166.60000000000008" y="46.699999999999996"><title>2024-07-27 87.85 mins</title></rect><rect fill="#7ec5fc" height="4" rx="1" ry="1" width="4" x="166.60000000000008" y="52.1"><title>2024-07-28 33.12 mins</title></rect><rect fill="#80c6fc" height="4" rx="1" ry="1" width="4" x="172.00000000000009" y="19.7"><title>2024-07-29 6.48 mins</title></rect><rect fill="#80c5fc" height="4" rx="1" ry="1" width="4" x="172.00000000000009" y="25.1"><title>2024-07-30 14.25 mins</title></rect><rect fill="#57b5fd" height="4" rx="1" ry="1" width="4" x="172.00000000000009" y="30.5"><title>2024-07-31 53.73 mins</title></rect><rect fill="#58b5fd" height="4" rx="1" ry="1" width="4" x="172.00000000000009" y="35.9"><title>2024-08-01 48.52 mins</title></rect><rect fill="#80c6fc" height="4" rx="1" ry="1" width="4" x="172.00000000000009" y="41.300000000000004"><title>2024-08-02 10.32 mins</title></rect><rect fill="#80c6fc" height="4" rx="1" ry="1" width="4" x="172.00000000000009" y="46.699999999999996"><title>2024-08-03 10.72 mins</title></rect><rect fill="#7fc5fc" height="4" rx="1" ry="1" width="4" x="172.00000000000009" y="52.1"><title>2024-08-04 20.73 mins</title></rect><text fill="#586e75" style="font-size:2.5px; font-family:Arial" x="177.4000000000001" y="18.3">Aug</text><rect fill="#7dc4fc" height="4" rx="1" ry="1" width="4" x="177.4000000000001" y="19.7"><title>2024-08-05 36.87 mins</title></rect><rect fill="#58b5fd" height="4" rx="1" ry="1" width="4" x="177.4000000000001" y="25.1"><title>2024-08-06 47.12 mins</title></rect><rect fill="#7fc5fc" height="4" rx="1" ry="1" width="4" x="177.4000000000001" y="30.5"><title>2024-08-07 15.2 mins</title></rect><rect fill="#57b5fd" height="4" rx="1" ry="1" width="4" x="177.4000000000001" y="35.9"><title>2024-08-08 63.72 mins</title></rect><rect fill="#80c6fc" height="4" rx="1" ry="1" width="4" x="177.4000000000001" y="41.300000000000004"><title>2024-08-09 7.57 mins</title></rect><rect fill="#80c6fc" height="4" rx="1" ry="1" width="4" x="177.4000000000001" y="46.699999999999996"><title>2024-08-10 9.92 mins</title></rect><rect fill="#57b5fd" height="4" rx="1" ry="1" width="4" x="177.4000000000001" y="52.1"><title>2024-08-11 66.17 mins</title></rect><rect fill="#7fc5fc" height="4" rx="1" ry="1" width="4" x="182.8000000000001" y="19.7"><title>2024-08-12 18.72 mins</title></rect><rect fill="#80c6fc" height="4" rx="1" ry="1" width="4" x="182.8000000000001" y="25.1"><title>2024-08-13 8.9 mins</title></rect><rect fill="#56b4fd" height="4" rx="1" ry="1" width="4" x="182.8000000000001" y="30.5"><title>2024-08-14 76.72 mins</title></rect><rect fill="#58b5fd" height="4" rx="1" ry="1" width="4" x="182.8000000000001" y="35.9"><title>2024-08-15 42.45 mins</title></rect><rect fill="#80c6fc" height="4" rx="1" ry="1" width="4" x="182.8000000000001" y="41.300000000000004"><title>2024-08-16 6.88 mins</title></rect><rect fill="#81c6fc" height="4" rx="1" ry="1" width="4" x="182.8000000000001" y="46.699999999999996"><title>2024-08-17 0.1 mins</title></rect><rect fill="#7fc5fc" height="4" rx="1" ry="1" width="4" x="182.8000000000001" y="52.1"><title>2024-08-18 17.78 mins</title></rect><rect fill="#80c5fc" height="4" rx="1" ry="1" width="4" x="188.2000000000001" y="19.7"><title>2024-08-19 13.93 mins</title></rect><rect fill="#7fc5fc" height="4" rx="1" ry="1" width="4" x="188.2000000000001" y="25.1"><title>2024-08-20 15.7 mins</title></rect><rect fill="#7fc5fc" height="4" rx="1" ry="1" width="4" x="188.2000000000001" y="30.5"><title>2024-08-21 15.58 mins</title></rect><rect fill="#57b5fd" height="4" rx="1" ry="1" width="4" x="188.2000000000001" y="35.9"><title>2024-08-22 62.4 mins</title></rect><rect fill="#80c5fc" height="4" rx="1" ry="1" width="4" x="188.2000000000001" y="41.300000000000004"><title>2024-08-23 13.18 mins</title></rect><rect fill="#7dc4fc" height="4" rx="1" ry="1" width="4" x="188.2000000000001" y="46.699999999999996"><title>2024-08-24 36.8 mins</title></rect><rect fill="#58b5fd" height="4" rx="1" ry="1" width="4" x="188.2000000000001" y="52.1"><title>2024-08-25 41.52 mins</title></rect><rect fill="#58b5fd" height="4" rx="1" ry="1" width="4" x="193.6000000000001" y="19.7"><title>2024-08-26 43.67 mins</title></rect><rect fill="#56b5fd" height="4" rx="1" ry="1" width="4" x="193.6000000000001" y="25.1"><title>2024-08-27 68.48 mins</title></rect><rect fill="#56b5fd" height="4" rx="1" ry="1" width="4" x="193.6000000000001" y="30.5"><title>2024-08-28 70.83 mins</title></rect><rect fill="#7dc4fc" height="4" rx="1" ry="1" width="4" x="193.6000000000001" y="35.9"><title>2024-08-29 39.2 mins</title></rect><rect fill="#7ec5fc" height="4" rx="1" ry="1" width="4" x="193.6000000000001" y="41.300000000000004"><title>2024-08-30 30.27 mins</title></rect><rect fill="#57b5fd" height="4" rx="1" ry="1" width="4" x="193.6000000000001" y="46.699999999999996"><title>2024-08-31 55.48 mins</title></rect><rect fill="#34A7FF" height="4" rx="1" ry="1" width="4" x="193.6000000000001" y="52.1"><title>2024-09-01 290.83 mins</title></rect><text fill="#586e75" style="font-size:2.5px; font-family:Arial" x="199.0000000000001" y="18.3">Sep</text><rect fill="#7fc5fc" height="4" rx="1" ry="1" width="4" x="199.0000000000001" y="19.7"><title>2024-09-02 17.13 mins</title></rect><rect fill="#7fc5fc" height="4" rx="1" ry="1" width="4" x="199.0000000000001" y="25.1"><title>2024-09-03 15.12 mins</title></rect><rect fill="#57b5fd" height="4" rx="1" ry="1" width="4" x="199.0000000000001" y="30.5"><title>2024-09-04 52.93 mins</title></rect><rect fill="#57b5fd" height="4" rx="1" ry="1" width="4" x="199.0000000000001" y="35.9"><title>2024-09-05 65.87 mins</title></rect><rect fill="#34A7FF" height="4" rx="1" ry="1" width="4" x="199.0000000000001" y="41.300000000000004"><title>2024-09-06 105.5 mins</title></rect><rect fill="#34A7FF" height="4" rx="1" ry="1" width="4" x="199.0000000000001" y="46.699999999999996"><title>2024-09-07 125.55 mins</title></rect><rect fill="#7ec5fc" height="4" rx="1" ry="1" width="4" x="199.0000000000001" y="52.1"><title>2024-09-08 26.33 mins</title></rect><rect fill="#7ec5fc" height="4" rx="1" ry="1" width="4" x="204.40000000000012" y="19.7"><title>2024-09-09 27.1 mins</title></rect><rect fill="#7dc4fc" height="4" rx="1" ry="1" width="4" x="204.40000000000012" y="25.1"><title>2024-09-10 37.33 mins</title></rect><rect fill="#80c5fc" height="4" rx="1" ry="1" width="4" x="204.40000000000012" y="30.5"><title>2024-09-11 12.83 mins</title></rect><rect fill="#57b5fd" height="4" rx="1" ry="1" width="4" x="204.40000000000012" y="35.9"><title>2024-09-12 52.35 mins</title></rect><rect fill="#56b5fd" height="4" rx="1" ry="1" width="4" x="204.40000000000012" y="41.300000000000004"><title>2024-09-13 70.2 mins</title></rect><rect fill="#7ec5fc" height="4" rx="1" ry="1" width="4" x="204.40000000000012" y="46.699999999999996"><title>2024-09-14 29.87 mins</title></rect><rect fill="#56b4fd" height="4" rx="1" ry="1" width="4" x="204.40000000000012" y="52.1"><title>2024-09-15 77.77 mins</title></rect><rect fill="#34A7FF" height="4" rx="1" ry="1" width="4" x="209.80000000000013" y="19.7"><title>2024-09-16 183.13 mins</title></rect><rect fill="#58b5fd" height="4" rx="1" ry="1" width="4" x="209.80000000000013" y="25.1"><title>2024-09-17 46.47 mins</title></rect><rect fill="#55b4fd" height="4" rx="1" ry="1" width="4" x="209.80000000000013" y="30.5"><title>2024-09-18 95.57 mins</title></rect><rect fill="#55b4fd" height="4" rx="1" ry="1" width="4" x="209.80000000000013" y="35.9"><title>2024-09-19 87.95 mins</title></rect><rect fill="#80c5fc" height="4" rx="1" ry="1" width="4" x="209.80000000000013" y="41.300000000000004"><title>2024-09-20 14.03 mins</title></rect><rect fill="#57b5fd" height="4" rx="1" ry="1" width="4" x="209.80000000000013" y="46.699999999999996"><title>2024-09-21 55.68 mins</title></rect><rect fill="#56b4fd" height="4" rx="1" ry="1" width="4" x="209.80000000000013" y="52.1"><title>2024-09-22 81.8 mins</title></rect><rect fill="#7ec5fc" height="4" rx="1" ry="1" width="4" x="215.20000000000013" y="19.7"><title>2024-09-23 30.63 mins</title></rect><rect fill="#7ec5fc" height="4" rx="1" ry="1" width="4" x="215.20000000000013" y="25.1"><title>2024-09-24 29.08 mins</title></rect><rect fill="#7ec5fc" height="4" rx="1" ry="1" width="4" x="215.20000000000013" y="30.5"><title>2024-09-25 28.7 mins</title></rect><rect fill="#7fc5fc" height="4" rx="1" ry="1" width="4" x="215.20000000000013" y="35.9"><title>2024-09-26 24.35 mins</title></rect><rect fill="#7fc5fc" height="4" rx="1" ry="1" width="4" x="215.20000000000013" y="41.300000000000004"><title>2024-09-27 15.15 mins</title></rect><rect fill="#7fc5fc" height="4" rx="1" ry="1" width="4" x="215.20000000000013" y="46.699999999999996"><title>2024-09-28 16.35 mins</title></rect><rect fill="#7ec5fc" height="4" rx="1" ry="1" width="4" x="215.20000000000013" y="52.1"><title>2024-09-29 30.23 mins</title></rect><rect fill="#57b5fd" height="4" rx="1" ry="1" width="4" x="220.60000000000014" y="19.7"><title>2024-09-30 49.15 mins</title></rect><rect fill="#34A7FF" height="4" rx="1" ry="1" width="4" x="220.60000000000014" y="25.1"><title>2024-10-01 180.2 mins</title></rect><rect fill="#7ec5fc" height="4" rx="1" ry="1" width="4" x="220.60000000000014" y="30.5"><title>2024-10-02 32.68 mins</title></rect><rect fill="#7fc5fc" height="4" rx="1" ry="1" width="4" x="220.60000000000014" y="35.9"><title>2024-10-03 23.17 mins</title></rect><rect fill="#34A7FF" height="4" rx="1" ry="1" width="4" x="220.60000000000014" y="41.300000000000004"><title>2024-10-04 115.72 mins</title></rect><rect fill="#34A7FF" height="4" rx="1" ry="1" width="4" x="220.60000000000014" y="46.699999999999996"><title>2024-10-05 287.6 mins</title></rect><rect fill="#34A7FF" height="4" rx="1" ry="1" width="4" x="220.60000000000014" y="52.1"><title>2024-10-06 187.57 mins</title></rect><text fill="#586e75" style="font-size:2.5px; font-family:Arial" x="226.00000000000014" y="18.3">Oct</text><rect fill="#56b5fd" height="4" rx="1" ry="1" width="4" x="226.00000000000014" y="19.7"><title>2024-10-07 72.25 mins</title></rect><rect fill="#58b5fd" height="4" rx="1" ry="1" width="4" x="226.00000000000014" y="25.1"><title>2024-10-08 44.23 mins</title></rect><rect fill="#7fc5fc" height="4" rx="1" ry="1" width="4" x="226.00000000000014" y="30.5"><title>2024-10-09 19.32 mins</title></rect><rect fill="#D6DDEA" height="4" rx="1" ry="1" width="4" x="226.00000000000014" y="35.9"><title>2024-10-10</title></rect><rect fill="#D6DDEA" height="4" rx="1" ry="1" width="4" x="226.00000000000014" y="41.300000000000004"><title>2024-10-11</title></rect><rect fill="#80c6fc" height="4" rx="1" ry="1" width="4" x="226.00000000000014" y="46.699999999999996"><title>2024-10-12 10.2 mins</title></rect><rect fill="#7fc5fc" height="4" rx="1" ry="1" width="4" x="226.00000000000014" y="52.1"><title>2024-10-13 21.62 mins</title></rect><rect fill="#57b5fd" height="4" rx="1" ry="1" width="4" x="231.40000000000015" y="19.7"><title>2024-10-14 66.15 mins</title></rect><rect fill="#7fc5fc" height="4" rx="1" ry="1" width="4" x="231.40000000000015" y="25.1"><title>2024-10-15 21.72 mins</title></rect><rect fill="#7fc5fc" height="4" rx="1" ry="1" width="4" x="231.40000000000015" y="30.5"><title>2024-10-16 15.28 mins</title></rect><rect fill="#56b4fd" height="4" rx="1" ry="1" width="4" x="231.40000000000015" y="35.9"><title>2024-10-17 76.32 mins</title></rect><rect fill="#57b5fd" height="4" rx="1" ry="1" width="4" x="231.40000000000015" y="41.300000000000004"><title>2024-10-18 53.85 mins</title></rect><rect fill="#7ec5fc" height="4" rx="1" ry="1" width="4" x="231.40000000000015" y="46.699999999999996"><title>2024-10-19 30.2 mins</title></rect><rect fill="#57b5fd" height="4" rx="1" ry="1" width="4" x="231.40000000000015" y="52.1"><title>2024-10-20 54.03 mins</title></rect><rect fill="#7fc5fc" height="4" rx="1" ry="1" width="4" x="236.80000000000015" y="19.7"><title>2024-10-21 19.7 mins</title></rect><rect fill="#81c6fc" height="4" rx="1" ry="1" width="4" x="236.80000000000015" y="25.1"><title>2024-10-22 4.32 mins</title></rect><rect fill="#80c6fc" height="4" rx="1" ry="1" width="4" x="236.80000000000015" y="30.5"><title>2024-10-23 11.4 mins</title></rect><rect fill="#7ec5fc" height="4" rx="1" ry="1" width="4" x="236.80000000000015" y="35.9"><title>2024-10-24 32.28 mins</title></rect><rect fill="#80c6fc" height="4" rx="1" ry="1" width="4" x="236.80000000000015" y="41.300000000000004"><title>2024-10-25 8.45 mins</title></rect><rect fill="#58b5fd" height="4" rx="1" ry="1" width="4" x="236.80000000000015" y="46.699999999999996"><title>2024-10-26 41.28 mins</title></rect><rect fill="#57b5fd" height="4" rx="1" ry="1" width="4" x="236.80000000000015" y="52.1"><title>2024-10-27 61.98 mins</title></rect><rect fill="#55b4fd" height="4" rx="1" ry="1" width="4" x="242.20000000000016" y="19.7"><title>2024-10-28 92.93 mins</title></rect><rect fill="#57b5fd" height="4" rx="1" ry="1" width="4" x="242.20000000000016" y="25.1"><title>2024-10-29 49.1 mins</title></rect><rect fill="#58b5fd" height="4" rx="1" ry="1" width="4" x="242.20000000000016" y="30.5"><title>2024-10-30 45.05 mins</title></rect><rect fill="#57b5fd" height="4" rx="1" ry="1" width="4" x="242.20000000000016" y="35.9"><title>2024-10-31 49.7 mins</title></rect><rect fill="#80c6fc" height="4" rx="1" ry="1" width="4" x="242.20000000000016" y="41.300000000000004"><title>2024-11-01 7.43 mins</title></rect><rect fill="#81c6fc" height="4" rx="1" ry="1" width="4" x="242.20000000000016" y="46.699999999999996"><title>2024-11-02 0.13 mins</title></rect><rect fill="#80c6fc" height="4" rx="1" ry="1" width="4" x="242.20000000000016" y="52.1"><title>2024-11-03 10.9 mins</title></rect><text fill="#586e75" style="font-size:2.5px; font-family:Arial" x="247.60000000000016" y="18.3">Nov</text><rect fill="#7fc5fc" height="4" rx="1" ry="1" width="4" x="247.60000000000016" y="19.7"><title>2024-11-04 20.25 mins</title></rect><rect fill="#58b5fd" height="4" rx="1" ry="1" width="4" x="247.60000000000016" y="25.1"><title>2024-11-05 47.53 mins</title></rect><rect fill="#7fc5fc" height="4" rx="1" ry="1" width="4" x="247.60000000000016" y="30.5"><title>2024-11-06 21.52 mins</title></rect><rect fill="#57b5fd" height="4" rx="1" ry="1" width="4" x="247.60000000000016" y="35.9"><title>2024-11-07 51.38 mins</title></rect><rect fill="#7fc5fc" height="4" rx="1" ry="1" width="4" x="247.60000000000016" y="41.300000000000004"><title>2024-11-08 21.97 mins</title></rect><rect fill="#81c6fc" height="4" rx="1" ry="1" width="4" x="247.60000000000016" y="46.699999999999996"><title>2024-11-09 3.88 mins</title></rect><rect fill="#7fc5fc" height="4" rx="1" ry="1" width="4" x="247.60000000000016" y="52.1"><title>2024-11-10 19.22 mins</title></rect><rect fill="#7fc5fc" height="4" rx="1" ry="1" width="4" x="253.00000000000017" y="19.7"><title>2024-11-11 22.37 mins</title></rect><rect fill="#7fc5fc" height="4" rx="1" ry="1" width="4" x="253.00000000000017" y="25.1"><title>2024-11-12 19.53 mins</title></rect><rect fill="#80c5fc" height="4" rx="1" ry="1" width="4" x="253.00000000000017" y="30.5"><title>2024-11-13 13.18 mins</title></rect><rect fill="#81c6fc" height="4" rx="1" ry="1" width="4" x="253.00000000000017" y="35.9"><title>2024-11-14 3.97 mins</title></rect><rect fill="#7dc5fc" height="4" rx="1" ry="1" width="4" x="253.00000000000017" y="41.300000000000004"><title>2024-11-15 34.58 mins</title></rect><rect fill="#7ec5fc" height="4" rx="1" ry="1" width="4" x="253.00000000000017" y="46.699999999999996"><title>2024-11-16 33.93 mins</title></rect><rect fill="#81c6fc" height="4" rx="1" ry="1" width="4" x="253.00000000000017" y="52.1"><title>2024-11-17 2.83 mins</title></rect><rect fill="#80c6fc" height="4" rx="1" ry="1" width="4" x="258.40000000000015" y="19.7"><title>2024-11-18 7.52 mins</title></rect><rect fill="#56b5fd" height="4" rx="1" ry="1" width="4" x="258.40000000000015" y="25.1"><title>2024-11-19 72.6 mins</title></rect><rect fill="#80c6fc" height="4" rx="1" ry="1" width="4" x="258.40000000000015" y="30.5"><title>2024-11-20 10.13 mins</title></rect><rect fill="#80c5fc" height="4" rx="1" ry="1" width="4" x="258.40000000000015" y="35.9"><title>2024-11-21 12.93 mins</title></rect><rect fill="#7dc4fc" height="4" rx="1" ry="1" width="4" x="258.40000000000015" y="41.300000000000004"><title>2024-11-22 40.18 mins</title></rect><rect fill="#D6DDEA" height="4" rx="1" ry="1" width="4" x="258.40000000000015" y="46.699999999999996"><title>2024-11-23</title></rect><rect fill="#57b5fd" height="4" rx="1" ry="1" width="4" x="258.40000000000015" y="52.1"><title>2024-11-24 61.45 mins</title></rect><rect fill="#7fc5fc" height="4" rx="1" ry="1" width="4" x="263.8000000000001" y="19.7"><title>2024-11-25 22.25 mins</title></rect><rect fill="#80c5fc" height="4" rx="1" ry="1" width="4" x="263.8000000000001" y="25.1"><title>2024-11-26 14.57 mins</title></rect><rect fill="#57b5fd" height="4" rx="1" ry="1" width="4" x="263.8000000000001" y="30.5"><title>2024-11-27 54.78 mins</title></rect><rect fill="#81c6fc" height="4" rx="1" ry="1" width="4" x="263.8000000000001" y="35.9"><title>2024-11-28 0.2 mins</title></rect><rect fill="#57b5fd" height="4" rx="1" ry="1" width="4" x="263.8000000000001" y="41.300000000000004"><title>2024-11-29 53.98 mins</title></rect><rect fill="#58b5fd" height="4" rx="1" ry="1" width="4" x="263.8000000000001" y="46.699999999999996"><title>2024-11-30 42.48 mins</title></rect><rect fill="#7fc5fc" height="4" rx="1" ry="1" width="4" x="263.8000000000001" y="52.1"><title>2024-12-01 22.13 mins</title></rect><text fill="#586e75" style="font-size:2.5px; font-family:Arial" x="269.2000000000001" y="18.3">Dec</text><rect fill="#7fc5fc" height="4" rx="1" ry="1" width="4" x="269.2000000000001" y="19.7"><title>2024-12-02 17.1 mins</title></rect><rect fill="#7ec5fc" height="4" rx="1" ry="1" width="4" x="269.2000000000001" y="25.1"><title>2024-12-03 33.57 mins</title></rect><rect fill="#57b5fd" height="4" rx="1" ry="1" width="4" x="269.2000000000001" y="30.5"><title>2024-12-04 54.02 mins</title></rect><rect fill="#7fc5fc" height="4" rx="1" ry="1" width="4" x="269.2000000000001" y="35.9"><title>2024-12-05 18.1 mins</title></rect><rect fill="#7ec5fc" height="4" rx="1" ry="1" width="4" x="269.2000000000001" y="41.300000000000004"><title>2024-12-06 33.62 mins</title></rect><rect fill="#80c6fc" height="4" rx="1" ry="1" width="4" x="269.2000000000001" y="46.699999999999996"><title>2024-12-07 6.88 mins</title></rect><rect fill="#7ec5fc" height="4" rx="1" ry="1" width="4" x="269.2000000000001" y="52.1"><title>2024-12-08 30.1 mins</title></rect><rect fill="#7dc4fc" height="4" rx="1" ry="1" width="4" x="274.6000000000001" y="19.7"><title>2024-12-09 40.68 mins</title></rect><rect fill="#80c5fc" height="4" rx="1" ry="1" width="4" x="274.6000000000001" y="25.1"><title>2024-12-10 12.17 mins</title></rect><rect fill="#7dc4fc" height="4" rx="1" ry="1" width="4" x="274.6000000000001" y="30.5"><title>2024-12-11 38.77 mins</title></rect><rect fill="#7fc5fc" height="4" rx="1" ry="1" width="4" x="274.6000000000001" y="35.9"><title>2024-12-12 15.88 mins</title></rect><rect fill="#7fc5fc" height="4" rx="1" ry="1" width="4" x="274.6000000000001" y="41.300000000000004"><title>2024-12-13 18.1 mins</title></rect><rect fill="#7ec5fc" height="4" rx="1" ry="1" width="4" x="274.6000000000001" y="46.699999999999996"><title>2024-12-14 31.35 mins</title></rect><rect fill="#D6DDEA" height="4" rx="1" ry="1" width="4" x="274.6000000000001" y="52.1"><title>2024-12-15</title></rect><rect fill="#D6DDEA" height="4" rx="1" ry="1" width="4" x="280.00000000000006" y="19.7"><title>2024-12-16</title></rect><rect fill="#D6DDEA" height="4" rx="1" ry="1" width="4" x="280.00000000000006" y="25.1"><title>2024-12-17</title></rect><rect fill="#D6DDEA" height="4" rx="1" ry="1" width="4" x="280.00000000000006" y="30.5"><title>2024-12-18</title></rect><rect fill="#D6DDEA" height="4" rx="1" ry="1" width="4" x="280.00000000000006" y="35.9"><title>2024-12-19</title></rect><rect fill="#D6DDEA" height="4" rx="1" ry="1" width="4" x="280.00000000000006" y="41.300000000000004"><title>2024-12-20</title></rect><rect fill="#D6DDEA" height="4" rx="1" ry="1" width="4" x="280.00000000000006" y="46.699999999999996"><title>2024-12-21</title></rect><rect fill="#D6DDEA" height="4" rx="1" ry="1" width="4" x="280.00000000000006" y="52.1"><title>2024-12-22</title></rect><rect fill="#D6DDEA" height="4" rx="1" ry="1" width="4" x="285.40000000000003" y="19.7"><title>2024-12-23</title></rect><rect fill="#D6DDEA" height="4" rx="1" ry="1" width="4" x="285.40000000000003" y="25.1"><title>2024-12-24</title></rect><rect fill="#D6DDEA" height="4" rx="1" ry="1" width="4" x="285.40000000000003" y="30.5"><title>2024-12-25</title></rect><rect fill="#D6DDEA" height="4" rx="1" ry="1" width="4" x="285.40000000000003" y="35.9"><title>2024-12-26</title></rect><rect fill="#D6DDEA" height="4" rx="1" ry="1" width="4" x="285.40000000000003" y="41.300000000000004"><title>2024-12-27</title></rect><rect fill="#D6DDEA" height="4" rx="1" ry="1" width="4" x="285.40000000000003" y="46.699999999999996"><title>2024-12-28</title></rect><rect fill="#D6DDEA" height="4" rx="1" ry="1" width="4" x="285.40000000000003" y="52.1"><title>2024-12-29</title></rect><rect fill="#D6DDEA" height="4" rx="1" ry="1" width="4" x="290.8" y="19.7"><title>2024-12-30</title></rect><rect fill="#D6DDEA" height="4" rx="1" ry="1" width="4" x="290.8" y="25.1"><title>2024-12-31</title></rect></svg>